<svg width="300" height="348" viewBox="0 0 300 348" fill="none" xmlns="http://www.w3.org/2000/svg">
<path d="M73.9027 333.24V339H53.9427V310.6H73.5427V316.36H60.5027V321.88H71.7027V327.2H60.5027V333.24H73.9027Z" fill="#E1603C"/>
<path d="M77.928 324.04V318.28H82.288V324.04H77.928ZM77.928 339V333.24H82.288V339H77.928ZM86.2908 324.6C86.2908 322.867 86.5974 321.173 87.2108 319.52C87.8508 317.84 88.7708 316.32 89.9708 314.96C91.1708 313.573 92.6374 312.48 94.3708 311.68C96.1041 310.853 98.0774 310.44 100.291 310.44C102.904 310.44 105.157 311.013 107.051 312.16C108.971 313.307 110.397 314.8 111.331 316.64L107.091 319.56C106.611 318.493 105.984 317.653 105.211 317.04C104.437 316.4 103.611 315.96 102.731 315.72C101.851 315.453 100.984 315.32 100.131 315.32C98.7441 315.32 97.5308 315.6 96.4908 316.16C95.4774 316.72 94.6241 317.453 93.9308 318.36C93.2374 319.267 92.7174 320.28 92.3708 321.4C92.0508 322.52 91.8908 323.64 91.8908 324.76C91.8908 326.013 92.0908 327.227 92.4908 328.4C92.8908 329.547 93.4508 330.573 94.1708 331.48C94.9174 332.36 95.7974 333.067 96.8108 333.6C97.8508 334.107 98.9841 334.36 100.211 334.36C101.091 334.36 101.984 334.213 102.891 333.92C103.797 333.627 104.637 333.16 105.411 332.52C106.184 331.88 106.784 331.053 107.211 330.04L111.731 332.64C111.171 334.053 110.251 335.253 108.971 336.24C107.717 337.227 106.304 337.973 104.731 338.48C103.157 338.987 101.597 339.24 100.051 339.24C98.0241 339.24 96.1708 338.827 94.4908 338C92.8108 337.147 91.3574 336.027 90.1308 334.64C88.9308 333.227 87.9841 331.653 87.2908 329.92C86.6241 328.16 86.2908 326.387 86.2908 324.6ZM113.361 324.6C113.361 322.867 113.668 321.173 114.281 319.52C114.921 317.84 115.841 316.32 117.041 314.96C118.241 313.573 119.708 312.48 121.441 311.68C123.174 310.853 125.148 310.44 127.361 310.44C129.974 310.44 132.228 311.013 134.121 312.16C136.041 313.307 137.468 314.8 138.401 316.64L134.161 319.56C133.681 318.493 133.054 317.653 132.281 317.04C131.508 316.4 130.681 315.96 129.801 315.72C128.921 315.453 128.054 315.32 127.201 315.32C125.814 315.32 124.601 315.6 123.561 316.16C122.548 316.72 121.694 317.453 121.001 318.36C120.308 319.267 119.788 320.28 119.441 321.4C119.121 322.52 118.961 323.64 118.961 324.76C118.961 326.013 119.161 327.227 119.561 328.4C119.961 329.547 120.521 330.573 121.241 331.48C121.988 332.36 122.868 333.067 123.881 333.6C124.921 334.107 126.054 334.36 127.281 334.36C128.161 334.36 129.054 334.213 129.961 333.92C130.868 333.627 131.708 333.16 132.481 332.52C133.254 331.88 133.854 331.053 134.281 330.04L138.801 332.64C138.241 334.053 137.321 335.253 136.041 336.24C134.788 337.227 133.374 337.973 131.801 338.48C130.228 338.987 128.668 339.24 127.121 339.24C125.094 339.24 123.241 338.827 121.561 338C119.881 337.147 118.428 336.027 117.201 334.64C116.001 333.227 115.054 331.653 114.361 329.92C113.694 328.16 113.361 326.387 113.361 324.6ZM142.503 339V310.6H148.023V334.16H162.503V339H142.503ZM185.582 334.16V339H165.862V310.6H185.222V315.44H171.382V322.28H183.342V326.76H171.382V334.16H185.582ZM206.806 318.04C206.619 317.853 206.272 317.6 205.766 317.28C205.286 316.96 204.686 316.653 203.966 316.36C203.272 316.067 202.512 315.813 201.686 315.6C200.859 315.36 200.019 315.24 199.166 315.24C197.672 315.24 196.539 315.52 195.766 316.08C195.019 316.64 194.646 317.427 194.646 318.44C194.646 319.213 194.886 319.827 195.366 320.28C195.846 320.733 196.566 321.12 197.526 321.44C198.486 321.76 199.686 322.107 201.126 322.48C202.992 322.933 204.606 323.493 205.966 324.16C207.352 324.8 208.406 325.653 209.126 326.72C209.872 327.76 210.246 329.147 210.246 330.88C210.246 332.4 209.966 333.707 209.406 334.8C208.846 335.867 208.072 336.733 207.086 337.4C206.099 338.067 204.979 338.56 203.726 338.88C202.472 339.173 201.139 339.32 199.726 339.32C198.312 339.32 196.899 339.173 195.486 338.88C194.072 338.587 192.712 338.173 191.406 337.64C190.099 337.08 188.899 336.413 187.806 335.64L190.246 330.88C190.486 331.12 190.912 331.44 191.526 331.84C192.139 332.213 192.886 332.6 193.766 333C194.646 333.373 195.606 333.693 196.646 333.96C197.686 334.227 198.739 334.36 199.806 334.36C201.299 334.36 202.432 334.107 203.206 333.6C203.979 333.093 204.366 332.373 204.366 331.44C204.366 330.587 204.059 329.92 203.446 329.44C202.832 328.96 201.979 328.547 200.886 328.2C199.792 327.827 198.499 327.427 197.006 327C195.219 326.493 193.726 325.933 192.526 325.32C191.326 324.68 190.432 323.88 189.846 322.92C189.259 321.96 188.966 320.76 188.966 319.32C188.966 317.373 189.419 315.747 190.326 314.44C191.259 313.107 192.512 312.107 194.086 311.44C195.659 310.747 197.406 310.4 199.326 310.4C200.659 310.4 201.912 310.547 203.086 310.84C204.286 311.133 205.406 311.52 206.446 312C207.486 312.48 208.419 313 209.246 313.56L206.806 318.04ZM214.417 339V310.6H219.937V339H214.417ZM233.582 310.6H239.182L249.622 339H243.942L241.302 331.92H231.382L228.782 339H223.102L233.582 310.6ZM240.302 328.04L236.382 316.32L232.302 328.04H240.302Z" fill="white"/>
<g clip-path="url(#clip0_596_26353)">
<path d="M300 257.634H0V267H300V257.634Z" fill="#E6E6E6"/>
<path d="M286.875 248.268H13.125V257.634H286.875V248.268Z" fill="#E6E6E6"/>
<path d="M273.75 238.901H26.25V248.268H273.75V238.901Z" fill="#838383"/>
<path d="M258.75 77.8027H232.5V238.901H258.75V77.8027Z" fill="#E6E6E6"/>
<path d="M202.5 77.8027H176.25V238.901H202.5V77.8027Z" fill="#E6E6E6"/>
<path d="M67.5 77.8027H41.25V238.901H67.5V77.8027Z" fill="#E6E6E6"/>
<path d="M123.75 77.8027H97.5V238.901H123.75V77.8027Z" fill="#E6E6E6"/>
<path d="M150 1L278.28 51.5775H21.72L150 1Z" fill="#E6E6E6"/>
<path d="M152.056 5.42867L150.004 0.196289L18.7509 51.5773L20.803 56.8097L152.056 5.42867Z" fill="#838383"/>
<path d="M281.249 51.5768L279.197 56.8093L147.933 5.42392L149.985 0.191382L281.249 51.5768Z" fill="#838383"/>
<path d="M270 59.0703H30V77.8027H270V59.0703Z" fill="#4F4F4F"/>
<path d="M281.25 51.5774H18.75V59.0704H281.25V51.5774Z" fill="#838383"/>
<path d="M41.25 77.8027H54.375H75L78.75 83.4225L76.875 89.0422L73.125 90.9154L67.5 89.0422H41.25L35.625 90.9154L31.875 89.0422L30 83.4225L33.75 77.8027H41.25Z" fill="#838383"/>
<path d="M232.5 77.8027H245.625H266.25L270 83.4225L268.125 89.0422L264.375 90.9154L258.75 89.0422H232.5L226.875 90.9154L223.125 89.0422L221.25 83.4225L225 77.8027H232.5Z" fill="#838383"/>
<path d="M176.25 77.8027H189.375H210L213.75 83.4225L211.875 89.0422L208.125 90.9154L202.5 89.0422H176.25L170.625 90.9154L166.875 89.0422L165 83.4225L168.75 77.8027H176.25Z" fill="#838383"/>
<path d="M97.5 77.8027H110.625H131.25L135 83.4225L133.125 89.0422L129.375 90.9154L123.75 89.0422H97.5L91.875 90.9154L88.125 89.0422L86.25 83.4225L90 77.8027H97.5Z" fill="#838383"/>
</g>
<defs>
<clipPath id="clip0_596_26353">
<rect width="300" height="267" fill="white"/>
</clipPath>
</defs>
</svg>
