<svg width="70" height="39" viewBox="0 0 70 39" fill="none" xmlns="http://www.w3.org/2000/svg">
<path d="M15.8507 35.56V37H10.8607V29.9H15.7607V31.34H12.5007V32.72H15.3007V34.05H12.5007V35.56H15.8507Z" fill="#E1603C"/>
<path d="M16.857 33.26V31.82H17.947V33.26H16.857ZM16.857 37V35.56H17.947V37H16.857ZM18.9477 33.4C18.9477 32.9667 19.0244 32.5433 19.1777 32.13C19.3377 31.71 19.5677 31.33 19.8677 30.99C20.1677 30.6433 20.5344 30.37 20.9677 30.17C21.401 29.9633 21.8944 29.86 22.4477 29.86C23.101 29.86 23.6644 30.0033 24.1377 30.29C24.6177 30.5767 24.9744 30.95 25.2077 31.41L24.1477 32.14C24.0277 31.8733 23.871 31.6633 23.6777 31.51C23.4844 31.35 23.2777 31.24 23.0577 31.18C22.8377 31.1133 22.621 31.08 22.4077 31.08C22.061 31.08 21.7577 31.15 21.4977 31.29C21.2444 31.43 21.031 31.6133 20.8577 31.84C20.6844 32.0667 20.5544 32.32 20.4677 32.6C20.3877 32.88 20.3477 33.16 20.3477 33.44C20.3477 33.7533 20.3977 34.0567 20.4977 34.35C20.5977 34.6367 20.7377 34.8933 20.9177 35.12C21.1044 35.34 21.3244 35.5167 21.5777 35.65C21.8377 35.7767 22.121 35.84 22.4277 35.84C22.6477 35.84 22.871 35.8033 23.0977 35.73C23.3244 35.6567 23.5344 35.54 23.7277 35.38C23.921 35.22 24.071 35.0133 24.1777 34.76L25.3077 35.41C25.1677 35.7633 24.9377 36.0633 24.6177 36.31C24.3044 36.5567 23.951 36.7433 23.5577 36.87C23.1644 36.9967 22.7744 37.06 22.3877 37.06C21.881 37.06 21.4177 36.9567 20.9977 36.75C20.5777 36.5367 20.2144 36.2567 19.9077 35.91C19.6077 35.5567 19.371 35.1633 19.1977 34.73C19.031 34.29 18.9477 33.8467 18.9477 33.4ZM25.7153 33.4C25.7153 32.9667 25.7919 32.5433 25.9453 32.13C26.1053 31.71 26.3353 31.33 26.6353 30.99C26.9353 30.6433 27.3019 30.37 27.7353 30.17C28.1686 29.9633 28.6619 29.86 29.2153 29.86C29.8686 29.86 30.4319 30.0033 30.9053 30.29C31.3853 30.5767 31.7419 30.95 31.9753 31.41L30.9153 32.14C30.7953 31.8733 30.6386 31.6633 30.4453 31.51C30.2519 31.35 30.0453 31.24 29.8253 31.18C29.6053 31.1133 29.3886 31.08 29.1753 31.08C28.8286 31.08 28.5253 31.15 28.2653 31.29C28.0119 31.43 27.7986 31.6133 27.6253 31.84C27.4519 32.0667 27.3219 32.32 27.2353 32.6C27.1553 32.88 27.1153 33.16 27.1153 33.44C27.1153 33.7533 27.1653 34.0567 27.2653 34.35C27.3653 34.6367 27.5053 34.8933 27.6853 35.12C27.8719 35.34 28.0919 35.5167 28.3453 35.65C28.6053 35.7767 28.8886 35.84 29.1953 35.84C29.4153 35.84 29.6386 35.8033 29.8653 35.73C30.0919 35.6567 30.3019 35.54 30.4953 35.38C30.6886 35.22 30.8386 35.0133 30.9453 34.76L32.0753 35.41C31.9353 35.7633 31.7053 36.0633 31.3853 36.31C31.0719 36.5567 30.7186 36.7433 30.3253 36.87C29.9319 36.9967 29.5419 37.06 29.1553 37.06C28.6486 37.06 28.1853 36.9567 27.7653 36.75C27.3453 36.5367 26.9819 36.2567 26.6753 35.91C26.3753 35.5567 26.1386 35.1633 25.9653 34.73C25.7986 34.29 25.7153 33.8467 25.7153 33.4ZM33.0007 37V29.9H34.3807V35.79H38.0007V37H33.0007ZM43.7706 35.79V37H38.8406V29.9H43.6806V31.11H40.2206V32.82H43.2106V33.94H40.2206V35.79H43.7706ZM49.0764 31.76C49.0298 31.7133 48.9431 31.65 48.8164 31.57C48.6964 31.49 48.5464 31.4133 48.3664 31.34C48.1931 31.2667 48.0031 31.2033 47.7964 31.15C47.5898 31.09 47.3798 31.06 47.1664 31.06C46.7931 31.06 46.5098 31.13 46.3164 31.27C46.1298 31.41 46.0364 31.6067 46.0364 31.86C46.0364 32.0533 46.0964 32.2067 46.2164 32.32C46.3364 32.4333 46.5164 32.53 46.7564 32.61C46.9964 32.69 47.2964 32.7767 47.6564 32.87C48.1231 32.9833 48.5264 33.1233 48.8664 33.29C49.2131 33.45 49.4764 33.6633 49.6564 33.93C49.8431 34.19 49.9364 34.5367 49.9364 34.97C49.9364 35.35 49.8664 35.6767 49.7264 35.95C49.5864 36.2167 49.3931 36.4333 49.1464 36.6C48.8998 36.7667 48.6198 36.89 48.3064 36.97C47.9931 37.0433 47.6598 37.08 47.3064 37.08C46.9531 37.08 46.5998 37.0433 46.2464 36.97C45.8931 36.8967 45.5531 36.7933 45.2264 36.66C44.8998 36.52 44.5998 36.3533 44.3264 36.16L44.9364 34.97C44.9964 35.03 45.1031 35.11 45.2564 35.21C45.4098 35.3033 45.5964 35.4 45.8164 35.5C46.0364 35.5933 46.2764 35.6733 46.5364 35.74C46.7964 35.8067 47.0598 35.84 47.3264 35.84C47.6998 35.84 47.9831 35.7767 48.1764 35.65C48.3698 35.5233 48.4664 35.3433 48.4664 35.11C48.4664 34.8967 48.3898 34.73 48.2364 34.61C48.0831 34.49 47.8698 34.3867 47.5964 34.3C47.3231 34.2067 46.9998 34.1067 46.6264 34C46.1798 33.8733 45.8064 33.7333 45.5064 33.58C45.2064 33.42 44.9831 33.22 44.8364 32.98C44.6898 32.74 44.6164 32.44 44.6164 32.08C44.6164 31.5933 44.7298 31.1867 44.9564 30.86C45.1898 30.5267 45.5031 30.2767 45.8964 30.11C46.2898 29.9367 46.7264 29.85 47.2064 29.85C47.5398 29.85 47.8531 29.8867 48.1464 29.96C48.4464 30.0333 48.7264 30.13 48.9864 30.25C49.2464 30.37 49.4798 30.5 49.6864 30.64L49.0764 31.76ZM50.9793 37V29.9H52.3593V37H50.9793ZM55.7706 29.9H57.1706L59.7806 37H58.3606L57.7006 35.23H55.2206L54.5706 37H53.1506L55.7706 29.9ZM57.4506 34.26L56.4706 31.33L55.4506 34.26H57.4506Z" fill="white"/>
<g clip-path="url(#clip0_240_10177)">
<path d="M47 25.0879H17V26H47V25.0879Z" fill="#E6E6E6"/>
<path d="M45.6875 24.1759H18.3125V25.088H45.6875V24.1759Z" fill="#E6E6E6"/>
<path d="M44.375 23.2638H19.625V24.1759H44.375V23.2638Z" fill="#838383"/>
<path d="M42.875 7.57629H40.25V23.2638H42.875V7.57629Z" fill="#E6E6E6"/>
<path d="M37.25 7.57629H34.625V23.2638H37.25V7.57629Z" fill="#E6E6E6"/>
<path d="M23.75 7.57629H21.125V23.2638H23.75V7.57629Z" fill="#E6E6E6"/>
<path d="M29.375 7.57629H26.75V23.2638H29.375V7.57629Z" fill="#E6E6E6"/>
<path d="M32 0.0974121L44.828 5.02256H19.172L32 0.0974121Z" fill="#E6E6E6"/>
<path d="M32.2056 0.528685L32.0004 0.019165L18.8751 5.02256L19.0803 5.53208L32.2056 0.528685Z" fill="#838383"/>
<path d="M45.1249 5.02245L44.9197 5.53198L31.7933 0.52816L31.9985 0.0186242L45.1249 5.02245Z" fill="#838383"/>
<path d="M44 5.7522H20V7.57633H44V5.7522Z" fill="#4F4F4F"/>
<path d="M45.125 5.02258H18.875V5.75223H45.125V5.02258Z" fill="#838383"/>
<path d="M21.125 7.57629H22.4375H24.5L24.875 8.12353L24.6875 8.67077L24.3125 8.85318L23.75 8.67077H21.125L20.5625 8.85318L20.1875 8.67077L20 8.12353L20.375 7.57629H21.125Z" fill="#838383"/>
<path d="M40.25 7.57629H41.5625H43.625L44 8.12353L43.8125 8.67077L43.4375 8.85318L42.875 8.67077H40.25L39.6875 8.85318L39.3125 8.67077L39.125 8.12353L39.5 7.57629H40.25Z" fill="#838383"/>
<path d="M34.625 7.57629H35.9375H38L38.375 8.12353L38.1875 8.67077L37.8125 8.85318L37.25 8.67077H34.625L34.0625 8.85318L33.6875 8.67077L33.5 8.12353L33.875 7.57629H34.625Z" fill="#838383"/>
<path d="M26.75 7.57629H28.0625H30.125L30.5 8.12353L30.3125 8.67077L29.9375 8.85318L29.375 8.67077H26.75L26.1875 8.85318L25.8125 8.67077L25.625 8.12353L26 7.57629H26.75Z" fill="#838383"/>
</g>
<defs>
<clipPath id="clip0_240_10177">
<rect width="30" height="26" fill="white" transform="translate(17)"/>
</clipPath>
</defs>
</svg>
