<svg width="19" height="15" viewBox="0 0 19 15" fill="none" xmlns="http://www.w3.org/2000/svg">
<path d="M16.4286 0.371139C16.5438 0.253631 16.6813 0.160281 16.8329 0.0965531C16.9846 0.032825 17.1475 0 17.312 0C17.4766 0 17.6395 0.032825 17.7911 0.0965531C17.9428 0.160281 18.0803 0.253631 18.1955 0.371139C18.6781 0.858826 18.6848 1.64689 18.2123 2.14301L8.23414 13.9386C8.12085 14.063 7.98338 14.163 7.83012 14.2325C7.67686 14.3019 7.51104 14.3394 7.34282 14.3425C7.17459 14.3457 7.00748 14.3145 6.85173 14.2508C6.69597 14.1872 6.55483 14.0925 6.43696 13.9724L0.36533 7.81976C0.131168 7.58096 0 7.25984 0 6.92539C0 6.59093 0.131168 6.26982 0.36533 6.03101C0.480495 5.91351 0.617946 5.82016 0.769636 5.75643C0.921325 5.6927 1.0842 5.65987 1.24874 5.65987C1.41327 5.65987 1.57615 5.6927 1.72784 5.75643C1.87953 5.82016 2.01698 5.91351 2.13214 6.03101L7.28239 11.2505L16.3949 0.408264C16.4054 0.395222 16.4167 0.382825 16.4286 0.371139Z" fill="white"/>
</svg>
